<svg width="247" height="38" viewBox="0 0 247 38" fill="none" xmlns="http://www.w3.org/2000/svg">
<path d="M0.992 1.296H10.496C14.816 1.296 18.384 2.16 21.2 3.888C24.048 5.584 26.112 7.792 27.392 10.512C28.704 13.2 29.36 16.048 29.36 19.056C29.36 22.416 28.576 25.392 27.008 27.984C25.44 30.544 23.344 32.528 20.72 33.936C18.096 35.312 15.248 36 12.176 36H0.992V1.296ZM11.264 31.488C13.824 31.488 16.112 30.992 18.128 30C20.144 28.976 21.712 27.504 22.832 25.584C23.984 23.664 24.56 21.376 24.56 18.72C24.56 16 23.968 13.664 22.784 11.712C21.6 9.76 20.016 8.288 18.032 7.296C16.08 6.272 13.968 5.76 11.696 5.76H5.648V31.488H11.264ZM59.7395 1.296V5.76H41.8355V16.32H57.8195V20.784H41.8355V31.488H60.4115V36H37.1795V1.296H59.7395ZM86.4909 7.488C85.2429 6.816 83.9149 6.272 82.5069 5.856C81.0989 5.44 79.7709 5.232 78.5229 5.232C76.6349 5.232 75.1309 5.664 74.0109 6.528C72.9229 7.36 72.3789 8.512 72.3789 9.984C72.3789 11.424 73.0189 12.608 74.2989 13.536C75.6109 14.432 77.4669 15.328 79.8669 16.224C81.6589 16.864 83.1629 17.568 84.3789 18.336C85.6269 19.072 86.6509 20.112 87.4509 21.456C88.2829 22.768 88.6989 24.448 88.6989 26.496C88.6989 28.352 88.2349 30.032 87.3069 31.536C86.3789 33.04 85.0509 34.224 83.3229 35.088C81.6269 35.952 79.6269 36.384 77.3229 36.384C75.1789 36.384 73.1149 36.048 71.1309 35.376C69.1469 34.672 67.4029 33.792 65.8989 32.736L67.9629 29.04C69.1469 29.936 70.5709 30.704 72.2349 31.344C73.8989 31.952 75.4509 32.256 76.8909 32.256C78.7469 32.256 80.3629 31.776 81.7389 30.816C83.1469 29.856 83.8509 28.432 83.8509 26.544C83.8509 24.944 83.2589 23.68 82.0749 22.752C80.9229 21.792 79.2909 20.896 77.1789 20.064C75.2269 19.328 73.5949 18.608 72.2829 17.904C71.0029 17.2 69.8989 16.24 68.9709 15.024C68.0429 13.776 67.5789 12.224 67.5789 10.368C67.5789 7.648 68.5229 5.456 70.4109 3.792C72.3309 2.096 74.8109 1.2 77.8509 1.104C81.5949 1.104 85.0669 2.032 88.2669 3.888L86.4909 7.488ZM116.738 1.296V5.76H107.426V36H102.77V5.76H93.698V1.296H116.738ZM128.836 1.296V36H124.18V1.296H128.836ZM169.045 1.296V37.152H168.901L143.413 11.28L143.509 36H138.805V0.239997H139.045L164.485 26.4L164.389 1.296H169.045ZM205.903 1.296L192.895 24.432V36H188.239V24.432L175.375 1.296H181.135L190.687 19.152L200.191 1.296H205.903ZM246.549 31.488V36H225.045L226.629 34.416C229.893 31.152 232.437 28.512 234.261 26.496C236.085 24.48 237.605 22.448 238.821 20.4C240.069 18.32 240.693 16.352 240.693 14.496C240.693 12.544 240.117 11.056 238.965 10.032C237.813 9.008 236.405 8.496 234.741 8.496C233.429 8.496 232.325 8.768 231.429 9.312C230.565 9.856 229.925 10.544 229.509 11.376C229.125 12.208 228.933 13.04 228.933 13.872C228.933 15.92 229.557 17.6 230.805 18.912L227.973 21.504C226.917 20.864 226.053 19.792 225.381 18.288C224.741 16.752 224.421 15.312 224.421 13.968C224.421 12.208 224.853 10.576 225.717 9.072C226.613 7.536 227.893 6.32 229.557 5.424C231.221 4.496 233.205 4.032 235.509 4.032C237.461 4.032 239.189 4.496 240.693 5.424C242.229 6.32 243.413 7.536 244.245 9.072C245.077 10.608 245.493 12.288 245.493 14.112C245.493 15.936 245.061 17.76 244.197 19.584C243.333 21.408 242.261 23.12 240.981 24.72C239.733 26.32 238.053 28.304 235.941 30.672L235.221 31.488H246.549Z" fill="url(#paint0_linear_1107_271)"/>
<defs>
<linearGradient id="paint0_linear_1107_271" x1="-4" y1="23.9999" x2="249" y2="23.9999" gradientUnits="userSpaceOnUse">
<stop stop-color="white"/>
<stop offset="0.0001" stop-color="white"/>
<stop offset="1" stop-color="#787878"/>
</linearGradient>
</defs>
</svg>
