<svg width="365" height="129" viewBox="0 0 365 129" fill="none" xmlns="http://www.w3.org/2000/svg">
<path d="M4.224 52V18.16H15.456C19.2 18.16 22.368 18.816 24.96 20.128C27.552 21.408 29.52 23.312 30.864 25.84C32.208 28.336 32.88 31.408 32.88 35.056C32.88 38.672 32.208 41.744 30.864 44.272C29.52 46.8 27.552 48.72 24.96 50.032C22.368 51.344 19.2 52 15.456 52H4.224ZM8.208 48.592H15.168C19.776 48.592 23.2 47.472 25.44 45.232C27.68 42.96 28.8 39.568 28.8 35.056C28.8 30.512 27.68 27.12 25.44 24.88C23.2 22.64 19.776 21.52 15.168 21.52H8.208V48.592ZM40.0834 52V18.16H61.6834V21.424H43.9714V33.184H60.6274V36.496H43.9714V48.688H61.6834V52H40.0834ZM78.8734 52.432C76.1534 52.432 73.7214 52.08 71.5774 51.376C69.4334 50.672 67.5614 49.664 65.9614 48.352L67.4014 45.184C68.5214 46.016 69.6414 46.72 70.7614 47.296C71.9134 47.84 73.1454 48.256 74.4574 48.544C75.7694 48.8 77.2414 48.928 78.8734 48.928C81.7214 48.928 83.8334 48.4 85.2094 47.344C86.5854 46.288 87.2734 44.88 87.2734 43.12C87.2734 41.616 86.7934 40.464 85.8334 39.664C84.8734 38.864 83.1934 38.224 80.7934 37.744L75.7534 36.736C72.6494 36.096 70.3294 35.056 68.7934 33.616C67.2894 32.176 66.5374 30.224 66.5374 27.76C66.5374 25.744 67.0494 23.984 68.0734 22.48C69.1294 20.976 70.6014 19.808 72.4894 18.976C74.3774 18.144 76.5694 17.728 79.0654 17.728C81.4654 17.728 83.6574 18.096 85.6414 18.832C87.6254 19.536 89.3214 20.576 90.7294 21.952L89.3374 25.024C87.8334 23.68 86.2494 22.72 84.5854 22.144C82.9534 21.536 81.0974 21.232 79.0174 21.232C76.3934 21.232 74.3134 21.808 72.7774 22.96C71.2734 24.08 70.5214 25.616 70.5214 27.568C70.5214 29.136 71.0014 30.368 71.9614 31.264C72.9214 32.128 74.5054 32.784 76.7134 33.232L81.8014 34.24C85.0654 34.912 87.4654 35.92 89.0014 37.264C90.5374 38.608 91.3054 40.496 91.3054 42.928C91.3054 44.784 90.7934 46.432 89.7694 47.872C88.7774 49.312 87.3534 50.432 85.4974 51.232C83.6414 52.032 81.4334 52.432 78.8734 52.432ZM105.245 52V21.52H93.2925V18.16H121.133V21.52H109.229V52H105.245ZM126.005 52V18.16H129.989V52H126.005ZM138.427 52V18.16H141.547L163.243 46.96H162.139V18.16H165.835V52H162.763L141.067 23.2H142.123V52H138.427ZM182.639 52V36.208L183.503 38.896L169.486 18.16H174.095L185.231 35.008H184.223L195.311 18.16H199.727L185.759 38.896L186.623 36.208V52H182.639ZM215.862 52V49.024L227.862 36.496C229.43 34.864 230.598 33.312 231.366 31.84C232.166 30.336 232.566 28.784 232.566 27.184C232.566 25.232 231.958 23.76 230.742 22.768C229.526 21.744 227.766 21.232 225.462 21.232C223.67 21.232 222.006 21.552 220.47 22.192C218.966 22.8 217.51 23.776 216.102 25.12L214.662 22C215.942 20.72 217.574 19.696 219.558 18.928C221.542 18.128 223.638 17.728 225.846 17.728C229.27 17.728 231.91 18.528 233.766 20.128C235.622 21.696 236.55 23.936 236.55 26.848C236.55 28.992 236.022 31.04 234.966 32.992C233.942 34.912 232.438 36.896 230.454 38.944L219.846 49.696V48.592H237.99V52H215.862Z" fill="url(#paint0_linear_1709_6)"/>
<path opacity="0.7" d="M1.584 83V70.31H9.684V71.534H3.042V75.944H9.288V77.186H3.042V81.758H9.684V83H1.584ZM10.78 83L14.83 77.978V78.698L10.996 73.964H12.76L15.658 77.654H15.136L18.016 73.964H19.762L15.982 78.68V78.014L19.996 83H18.214L15.118 79.058H15.658L12.526 83H10.78ZM21.6368 86.888V76.052C21.6368 75.716 21.6188 75.374 21.5828 75.026C21.5588 74.666 21.5288 74.312 21.4928 73.964H22.8968L23.0948 76.106H22.8788C23.0708 75.398 23.4608 74.84 24.0488 74.432C24.6368 74.012 25.3388 73.802 26.1548 73.802C26.9708 73.802 27.6728 73.988 28.2608 74.36C28.8608 74.732 29.3288 75.266 29.6648 75.962C30.0008 76.658 30.1688 77.498 30.1688 78.482C30.1688 79.454 30.0008 80.288 29.6648 80.984C29.3408 81.68 28.8788 82.22 28.2788 82.604C27.6788 82.976 26.9708 83.162 26.1548 83.162C25.3508 83.162 24.6548 82.958 24.0668 82.55C23.4788 82.142 23.0888 81.584 22.8968 80.876H23.0948V86.888H21.6368ZM25.8668 81.974C26.7308 81.974 27.4148 81.68 27.9188 81.092C28.4348 80.492 28.6928 79.622 28.6928 78.482C28.6928 77.33 28.4348 76.46 27.9188 75.872C27.4148 75.272 26.7308 74.972 25.8668 74.972C25.0148 74.972 24.3308 75.272 23.8148 75.872C23.3108 76.46 23.0588 77.33 23.0588 78.482C23.0588 79.622 23.3108 80.492 23.8148 81.092C24.3308 81.68 25.0148 81.974 25.8668 81.974ZM36.4438 83.162C35.0278 83.162 33.9118 82.754 33.0958 81.938C32.2798 81.11 31.8718 79.964 31.8718 78.5C31.8718 77.552 32.0518 76.73 32.4118 76.034C32.7718 75.326 33.2758 74.78 33.9238 74.396C34.5718 74 35.3158 73.802 36.1558 73.802C36.9838 73.802 37.6798 73.976 38.2438 74.324C38.8078 74.672 39.2398 75.17 39.5398 75.818C39.8398 76.454 39.9898 77.21 39.9898 78.086V78.626H32.9878V77.708H39.0358L38.7298 77.942C38.7298 76.982 38.5138 76.232 38.0818 75.692C37.6498 75.152 37.0078 74.882 36.1558 74.882C35.2558 74.882 34.5538 75.2 34.0498 75.836C33.5458 76.46 33.2938 77.306 33.2938 78.374V78.536C33.2938 79.664 33.5698 80.522 34.1218 81.11C34.6858 81.686 35.4718 81.974 36.4798 81.974C37.0198 81.974 37.5238 81.896 37.9918 81.74C38.4718 81.572 38.9278 81.302 39.3598 80.93L39.8638 81.956C39.4678 82.34 38.9638 82.64 38.3518 82.856C37.7518 83.06 37.1158 83.162 36.4438 83.162ZM42.1848 83V76.142C42.1848 75.782 42.1728 75.416 42.1488 75.044C42.1368 74.672 42.1128 74.312 42.0768 73.964H43.4808L43.6608 76.16L43.4088 76.178C43.5288 75.638 43.7388 75.194 44.0388 74.846C44.3388 74.498 44.6928 74.24 45.1008 74.072C45.5088 73.892 45.9348 73.802 46.3788 73.802C46.5588 73.802 46.7148 73.808 46.8468 73.82C46.9908 73.832 47.1228 73.862 47.2428 73.91L47.2248 75.206C47.0448 75.146 46.8768 75.11 46.7208 75.098C46.5768 75.074 46.4088 75.062 46.2168 75.062C45.6888 75.062 45.2268 75.188 44.8308 75.44C44.4468 75.692 44.1528 76.016 43.9488 76.412C43.7568 76.808 43.6608 77.228 43.6608 77.672V83H42.1848ZM48.7599 83V73.964H50.2179V83H48.7599ZM48.5799 71.912V70.274H50.3799V71.912H48.5799ZM57.063 83.162C55.647 83.162 54.531 82.754 53.715 81.938C52.899 81.11 52.491 79.964 52.491 78.5C52.491 77.552 52.671 76.73 53.031 76.034C53.391 75.326 53.895 74.78 54.543 74.396C55.191 74 55.935 73.802 56.775 73.802C57.603 73.802 58.299 73.976 58.863 74.324C59.427 74.672 59.859 75.17 60.159 75.818C60.459 76.454 60.609 77.21 60.609 78.086V78.626H53.607V77.708H59.655L59.349 77.942C59.349 76.982 59.133 76.232 58.701 75.692C58.269 75.152 57.627 74.882 56.775 74.882C55.875 74.882 55.173 75.2 54.669 75.836C54.165 76.46 53.913 77.306 53.913 78.374V78.536C53.913 79.664 54.189 80.522 54.741 81.11C55.305 81.686 56.091 81.974 57.099 81.974C57.639 81.974 58.143 81.896 58.611 81.74C59.091 81.572 59.547 81.302 59.979 80.93L60.483 81.956C60.087 82.34 59.583 82.64 58.971 82.856C58.371 83.06 57.735 83.162 57.063 83.162ZM62.84 83V76.052C62.84 75.716 62.822 75.374 62.786 75.026C62.762 74.666 62.732 74.312 62.696 73.964H64.1L64.28 75.944H64.064C64.328 75.248 64.748 74.72 65.324 74.36C65.912 73.988 66.59 73.802 67.358 73.802C68.426 73.802 69.23 74.09 69.77 74.666C70.322 75.23 70.598 76.124 70.598 77.348V83H69.14V77.438C69.14 76.586 68.966 75.968 68.618 75.584C68.282 75.188 67.754 74.99 67.034 74.99C66.194 74.99 65.528 75.248 65.036 75.764C64.544 76.28 64.298 76.97 64.298 77.834V83H62.84ZM77.1848 83.162C76.2968 83.162 75.5228 82.97 74.8628 82.586C74.2148 82.202 73.7108 81.656 73.3508 80.948C73.0028 80.24 72.8288 79.4 72.8288 78.428C72.8288 77.444 73.0088 76.61 73.3688 75.926C73.7288 75.23 74.2328 74.702 74.8808 74.342C75.5408 73.982 76.3088 73.802 77.1848 73.802C77.7608 73.802 78.3188 73.904 78.8588 74.108C79.4108 74.312 79.8668 74.6 80.2268 74.972L79.7048 76.016C79.3448 75.668 78.9488 75.41 78.5168 75.242C78.0968 75.074 77.6828 74.99 77.2748 74.99C76.3388 74.99 75.6128 75.284 75.0968 75.872C74.5808 76.46 74.3228 77.318 74.3228 78.446C74.3228 79.562 74.5808 80.426 75.0968 81.038C75.6128 81.65 76.3388 81.956 77.2748 81.956C77.6708 81.956 78.0788 81.878 78.4988 81.722C78.9308 81.566 79.3328 81.308 79.7048 80.948L80.2268 81.974C79.8548 82.358 79.3928 82.652 78.8408 82.856C78.2888 83.06 77.7368 83.162 77.1848 83.162ZM86.1372 83.162C84.7212 83.162 83.6052 82.754 82.7892 81.938C81.9732 81.11 81.5652 79.964 81.5652 78.5C81.5652 77.552 81.7452 76.73 82.1052 76.034C82.4652 75.326 82.9692 74.78 83.6172 74.396C84.2652 74 85.0092 73.802 85.8492 73.802C86.6772 73.802 87.3732 73.976 87.9372 74.324C88.5012 74.672 88.9332 75.17 89.2332 75.818C89.5332 76.454 89.6832 77.21 89.6832 78.086V78.626H82.6812V77.708H88.7292L88.4232 77.942C88.4232 76.982 88.2072 76.232 87.7752 75.692C87.3432 75.152 86.7012 74.882 85.8492 74.882C84.9492 74.882 84.2472 75.2 83.7432 75.836C83.2392 76.46 82.9872 77.306 82.9872 78.374V78.536C82.9872 79.664 83.2632 80.522 83.8152 81.11C84.3792 81.686 85.1652 81.974 86.1732 81.974C86.7132 81.974 87.2172 81.896 87.6852 81.74C88.1652 81.572 88.6212 81.302 89.0532 80.93L89.5572 81.956C89.1612 82.34 88.6572 82.64 88.0452 82.856C87.4452 83.06 86.8092 83.162 86.1372 83.162ZM100.046 83.162C99.2415 83.162 98.5395 82.976 97.9395 82.604C97.3395 82.22 96.8715 81.68 96.5355 80.984C96.2115 80.288 96.0495 79.454 96.0495 78.482C96.0495 77.498 96.2115 76.658 96.5355 75.962C96.8715 75.266 97.3395 74.732 97.9395 74.36C98.5395 73.988 99.2415 73.802 100.046 73.802C100.862 73.802 101.564 74.012 102.152 74.432C102.752 74.84 103.148 75.398 103.34 76.106H103.124L103.322 73.964H104.726C104.69 74.312 104.654 74.666 104.618 75.026C104.594 75.374 104.582 75.716 104.582 76.052V83H103.124V80.876H103.322C103.13 81.584 102.734 82.142 102.134 82.55C101.534 82.958 100.838 83.162 100.046 83.162ZM100.334 81.974C101.198 81.974 101.882 81.68 102.386 81.092C102.89 80.492 103.142 79.622 103.142 78.482C103.142 77.33 102.89 76.46 102.386 75.872C101.882 75.272 101.198 74.972 100.334 74.972C99.4815 74.972 98.7975 75.272 98.2815 75.872C97.7775 76.46 97.5255 77.33 97.5255 78.482C97.5255 79.622 97.7775 80.492 98.2815 81.092C98.7975 81.68 99.4815 81.974 100.334 81.974ZM107.401 83V76.052C107.401 75.716 107.383 75.374 107.347 75.026C107.323 74.666 107.293 74.312 107.257 73.964H108.661L108.841 75.944H108.625C108.889 75.248 109.309 74.72 109.885 74.36C110.473 73.988 111.151 73.802 111.919 73.802C112.987 73.802 113.791 74.09 114.331 74.666C114.883 75.23 115.159 76.124 115.159 77.348V83H113.701V77.438C113.701 76.586 113.527 75.968 113.179 75.584C112.843 75.188 112.315 74.99 111.595 74.99C110.755 74.99 110.089 75.248 109.597 75.764C109.105 76.28 108.859 76.97 108.859 77.834V83H107.401ZM122.641 83V73.964H124.099V83H122.641ZM122.461 71.912V70.274H124.261V71.912H122.461ZM126.93 83V76.052C126.93 75.716 126.912 75.374 126.876 75.026C126.852 74.666 126.822 74.312 126.786 73.964H128.19L128.37 75.944H128.154C128.394 75.26 128.772 74.732 129.288 74.36C129.816 73.988 130.452 73.802 131.196 73.802C131.952 73.802 132.564 73.982 133.032 74.342C133.512 74.702 133.836 75.26 134.004 76.016H133.734C133.962 75.332 134.364 74.792 134.94 74.396C135.516 74 136.188 73.802 136.956 73.802C137.952 73.802 138.702 74.09 139.206 74.666C139.71 75.23 139.962 76.124 139.962 77.348V83H138.504V77.438C138.504 76.586 138.354 75.968 138.054 75.584C137.754 75.188 137.274 74.99 136.614 74.99C135.858 74.99 135.258 75.254 134.814 75.782C134.382 76.298 134.166 76.994 134.166 77.87V83H132.708V77.438C132.708 76.586 132.558 75.968 132.258 75.584C131.958 75.188 131.478 74.99 130.818 74.99C130.062 74.99 129.468 75.254 129.036 75.782C128.604 76.298 128.388 76.994 128.388 77.87V83H126.93ZM142.733 83V76.052C142.733 75.716 142.715 75.374 142.679 75.026C142.655 74.666 142.625 74.312 142.589 73.964H143.993L144.173 75.944H143.957C144.197 75.26 144.575 74.732 145.091 74.36C145.619 73.988 146.255 73.802 146.999 73.802C147.755 73.802 148.367 73.982 148.835 74.342C149.315 74.702 149.639 75.26 149.807 76.016H149.537C149.765 75.332 150.167 74.792 150.743 74.396C151.319 74 151.991 73.802 152.759 73.802C153.755 73.802 154.505 74.09 155.009 74.666C155.513 75.23 155.765 76.124 155.765 77.348V83H154.307V77.438C154.307 76.586 154.157 75.968 153.857 75.584C153.557 75.188 153.077 74.99 152.417 74.99C151.661 74.99 151.061 75.254 150.617 75.782C150.185 76.298 149.969 76.994 149.969 77.87V83H148.511V77.438C148.511 76.586 148.361 75.968 148.061 75.584C147.761 75.188 147.281 74.99 146.621 74.99C145.865 74.99 145.271 75.254 144.839 75.782C144.407 76.298 144.191 76.994 144.191 77.87V83H142.733ZM162.549 83.162C161.133 83.162 160.017 82.754 159.201 81.938C158.385 81.11 157.977 79.964 157.977 78.5C157.977 77.552 158.157 76.73 158.517 76.034C158.877 75.326 159.381 74.78 160.029 74.396C160.677 74 161.421 73.802 162.261 73.802C163.089 73.802 163.785 73.976 164.349 74.324C164.913 74.672 165.345 75.17 165.645 75.818C165.945 76.454 166.095 77.21 166.095 78.086V78.626H159.093V77.708H165.141L164.835 77.942C164.835 76.982 164.619 76.232 164.187 75.692C163.755 75.152 163.113 74.882 162.261 74.882C161.361 74.882 160.659 75.2 160.155 75.836C159.651 76.46 159.399 77.306 159.399 78.374V78.536C159.399 79.664 159.675 80.522 160.227 81.11C160.791 81.686 161.577 81.974 162.585 81.974C163.125 81.974 163.629 81.896 164.097 81.74C164.577 81.572 165.033 81.302 165.465 80.93L165.969 81.956C165.573 82.34 165.069 82.64 164.457 82.856C163.857 83.06 163.221 83.162 162.549 83.162ZM168.29 83V76.142C168.29 75.782 168.278 75.416 168.254 75.044C168.242 74.672 168.218 74.312 168.182 73.964H169.586L169.766 76.16L169.514 76.178C169.634 75.638 169.844 75.194 170.144 74.846C170.444 74.498 170.798 74.24 171.206 74.072C171.614 73.892 172.04 73.802 172.484 73.802C172.664 73.802 172.82 73.808 172.952 73.82C173.096 73.832 173.228 73.862 173.348 73.91L173.33 75.206C173.15 75.146 172.982 75.11 172.826 75.098C172.682 75.074 172.514 75.062 172.322 75.062C171.794 75.062 171.332 75.188 170.936 75.44C170.552 75.692 170.258 76.016 170.054 76.412C169.862 76.808 169.766 77.228 169.766 77.672V83H168.29ZM177.783 83.162C177.063 83.162 176.391 83.066 175.767 82.874C175.143 82.67 174.627 82.388 174.219 82.028L174.723 81.002C175.167 81.35 175.647 81.608 176.163 81.776C176.691 81.944 177.237 82.028 177.801 82.028C178.521 82.028 179.061 81.902 179.421 81.65C179.793 81.386 179.979 81.026 179.979 80.57C179.979 80.222 179.859 79.946 179.619 79.742C179.391 79.526 179.013 79.358 178.485 79.238L176.811 78.896C176.043 78.728 175.467 78.446 175.083 78.05C174.699 77.642 174.507 77.126 174.507 76.502C174.507 75.974 174.645 75.512 174.921 75.116C175.197 74.708 175.599 74.39 176.127 74.162C176.655 73.922 177.273 73.802 177.981 73.802C178.641 73.802 179.247 73.904 179.799 74.108C180.363 74.3 180.831 74.582 181.203 74.954L180.681 75.962C180.321 75.614 179.907 75.356 179.439 75.188C178.983 75.008 178.509 74.918 178.017 74.918C177.309 74.918 176.775 75.062 176.415 75.35C176.067 75.626 175.893 75.992 175.893 76.448C175.893 76.796 176.001 77.084 176.217 77.312C176.445 77.528 176.793 77.69 177.261 77.798L178.935 78.14C179.751 78.32 180.357 78.602 180.753 78.986C181.161 79.358 181.365 79.862 181.365 80.498C181.365 81.038 181.215 81.512 180.915 81.92C180.615 82.316 180.195 82.622 179.655 82.838C179.127 83.054 178.503 83.162 177.783 83.162ZM183.707 83V73.964H185.165V83H183.707ZM183.527 71.912V70.274H185.327V71.912H183.527ZM190.66 83L186.79 73.964H188.374L191.614 81.92H191.128L194.404 73.964H195.916L192.046 83H190.66ZM201.45 83.162C200.034 83.162 198.918 82.754 198.102 81.938C197.286 81.11 196.878 79.964 196.878 78.5C196.878 77.552 197.058 76.73 197.418 76.034C197.778 75.326 198.282 74.78 198.93 74.396C199.578 74 200.322 73.802 201.162 73.802C201.99 73.802 202.686 73.976 203.25 74.324C203.814 74.672 204.246 75.17 204.546 75.818C204.846 76.454 204.996 77.21 204.996 78.086V78.626H197.994V77.708H204.042L203.736 77.942C203.736 76.982 203.52 76.232 203.088 75.692C202.656 75.152 202.014 74.882 201.162 74.882C200.262 74.882 199.56 75.2 199.056 75.836C198.552 76.46 198.3 77.306 198.3 78.374V78.536C198.3 79.664 198.576 80.522 199.128 81.11C199.692 81.686 200.478 81.974 201.486 81.974C202.026 81.974 202.53 81.896 202.998 81.74C203.478 81.572 203.934 81.302 204.366 80.93L204.87 81.956C204.474 82.34 203.97 82.64 203.358 82.856C202.758 83.06 202.122 83.162 201.45 83.162ZM210.822 83L216.42 70.31H217.716L223.404 83H221.856L220.272 79.382L220.938 79.76H213.18L213.9 79.382L212.352 83H210.822ZM217.05 72.02L214.134 78.86L213.702 78.536H220.398L220.074 78.86L217.086 72.02H217.05ZM224.058 83L229.656 70.31H230.952L236.64 83H235.092L233.508 79.382L234.174 79.76H226.416L227.136 79.382L225.588 83H224.058ZM230.286 72.02L227.37 78.86L226.938 78.536H233.634L233.31 78.86L230.322 72.02H230.286ZM237.295 83L242.893 70.31H244.189L249.877 83H248.329L246.745 79.382L247.411 79.76H239.653L240.373 79.382L238.825 83H237.295ZM243.523 72.02L240.607 78.86L240.175 78.536H246.871L246.547 78.86L243.559 72.02H243.523ZM259.76 83.162C258.956 83.162 258.254 82.976 257.654 82.604C257.054 82.22 256.586 81.68 256.25 80.984C255.926 80.288 255.764 79.454 255.764 78.482C255.764 77.498 255.926 76.658 256.25 75.962C256.586 75.266 257.054 74.732 257.654 74.36C258.254 73.988 258.956 73.802 259.76 73.802C260.576 73.802 261.278 74.012 261.866 74.432C262.466 74.84 262.862 75.398 263.054 76.106H262.838L263.036 73.964H264.44C264.404 74.312 264.368 74.666 264.332 75.026C264.308 75.374 264.296 75.716 264.296 76.052V83H262.838V80.876H263.036C262.844 81.584 262.448 82.142 261.848 82.55C261.248 82.958 260.552 83.162 259.76 83.162ZM260.048 81.974C260.912 81.974 261.596 81.68 262.1 81.092C262.604 80.492 262.856 79.622 262.856 78.482C262.856 77.33 262.604 76.46 262.1 75.872C261.596 75.272 260.912 74.972 260.048 74.972C259.196 74.972 258.512 75.272 257.996 75.872C257.492 76.46 257.24 77.33 257.24 78.482C257.24 79.622 257.492 80.492 257.996 81.092C258.512 81.68 259.196 81.974 260.048 81.974ZM267.079 83V76.142C267.079 75.782 267.067 75.416 267.043 75.044C267.031 74.672 267.007 74.312 266.971 73.964H268.375L268.555 76.16L268.303 76.178C268.423 75.638 268.633 75.194 268.933 74.846C269.233 74.498 269.587 74.24 269.995 74.072C270.403 73.892 270.829 73.802 271.273 73.802C271.453 73.802 271.609 73.808 271.741 73.82C271.885 73.832 272.017 73.862 272.137 73.91L272.119 75.206C271.939 75.146 271.771 75.11 271.615 75.098C271.471 75.074 271.303 75.062 271.111 75.062C270.583 75.062 270.121 75.188 269.725 75.44C269.341 75.692 269.047 76.016 268.843 76.412C268.651 76.808 268.555 77.228 268.555 77.672V83H267.079ZM277.347 83.162C276.459 83.162 275.685 82.97 275.025 82.586C274.377 82.202 273.873 81.656 273.513 80.948C273.165 80.24 272.991 79.4 272.991 78.428C272.991 77.444 273.171 76.61 273.531 75.926C273.891 75.23 274.395 74.702 275.043 74.342C275.703 73.982 276.471 73.802 277.347 73.802C277.923 73.802 278.481 73.904 279.021 74.108C279.573 74.312 280.029 74.6 280.389 74.972L279.867 76.016C279.507 75.668 279.111 75.41 278.679 75.242C278.259 75.074 277.845 74.99 277.437 74.99C276.501 74.99 275.775 75.284 275.259 75.872C274.743 76.46 274.485 77.318 274.485 78.446C274.485 79.562 274.743 80.426 275.259 81.038C275.775 81.65 276.501 81.956 277.437 81.956C277.833 81.956 278.241 81.878 278.661 81.722C279.093 81.566 279.495 81.308 279.867 80.948L280.389 81.974C280.017 82.358 279.555 82.652 279.003 82.856C278.451 83.06 277.899 83.162 277.347 83.162ZM285.829 83.162C285.025 83.162 284.323 82.976 283.723 82.604C283.123 82.22 282.655 81.68 282.319 80.984C281.995 80.288 281.833 79.454 281.833 78.482C281.833 77.498 281.995 76.658 282.319 75.962C282.655 75.266 283.123 74.732 283.723 74.36C284.323 73.988 285.025 73.802 285.829 73.802C286.645 73.802 287.347 74.012 287.935 74.432C288.535 74.84 288.931 75.398 289.123 76.106H288.907L289.105 73.964H290.509C290.473 74.312 290.437 74.666 290.401 75.026C290.377 75.374 290.365 75.716 290.365 76.052V83H288.907V80.876H289.105C288.913 81.584 288.517 82.142 287.917 82.55C287.317 82.958 286.621 83.162 285.829 83.162ZM286.117 81.974C286.981 81.974 287.665 81.68 288.169 81.092C288.673 80.492 288.925 79.622 288.925 78.482C288.925 77.33 288.673 76.46 288.169 75.872C287.665 75.272 286.981 74.972 286.117 74.972C285.265 74.972 284.581 75.272 284.065 75.872C283.561 76.46 283.309 77.33 283.309 78.482C283.309 79.622 283.561 80.492 284.065 81.092C284.581 81.68 285.265 81.974 286.117 81.974ZM296.604 83.162C295.812 83.162 295.116 82.976 294.516 82.604C293.916 82.22 293.448 81.68 293.112 80.984C292.788 80.288 292.626 79.454 292.626 78.482C292.626 77.498 292.788 76.658 293.112 75.962C293.448 75.266 293.916 74.732 294.516 74.36C295.116 73.988 295.812 73.802 296.604 73.802C297.42 73.802 298.122 74.006 298.71 74.414C299.31 74.822 299.712 75.374 299.916 76.07H299.7V69.752H301.158V83H299.718V80.84H299.916C299.724 81.56 299.328 82.13 298.728 82.55C298.128 82.958 297.42 83.162 296.604 83.162ZM296.91 81.974C297.762 81.974 298.446 81.68 298.962 81.092C299.478 80.492 299.736 79.622 299.736 78.482C299.736 77.33 299.478 76.46 298.962 75.872C298.446 75.272 297.762 74.972 296.91 74.972C296.058 74.972 295.374 75.272 294.858 75.872C294.354 76.46 294.102 77.33 294.102 78.482C294.102 79.622 294.354 80.492 294.858 81.092C295.374 81.68 296.058 81.974 296.91 81.974ZM307.991 83.162C306.575 83.162 305.459 82.754 304.643 81.938C303.827 81.11 303.419 79.964 303.419 78.5C303.419 77.552 303.599 76.73 303.959 76.034C304.319 75.326 304.823 74.78 305.471 74.396C306.119 74 306.863 73.802 307.703 73.802C308.531 73.802 309.227 73.976 309.791 74.324C310.355 74.672 310.787 75.17 311.087 75.818C311.387 76.454 311.537 77.21 311.537 78.086V78.626H304.535V77.708H310.583L310.277 77.942C310.277 76.982 310.061 76.232 309.629 75.692C309.197 75.152 308.555 74.882 307.703 74.882C306.803 74.882 306.101 75.2 305.597 75.836C305.093 76.46 304.841 77.306 304.841 78.374V78.536C304.841 79.664 305.117 80.522 305.669 81.11C306.233 81.686 307.019 81.974 308.027 81.974C308.567 81.974 309.071 81.896 309.539 81.74C310.019 81.572 310.475 81.302 310.907 80.93L311.411 81.956C311.015 82.34 310.511 82.64 309.899 82.856C309.299 83.06 308.663 83.162 307.991 83.162ZM1.386 108V101.142C1.386 100.782 1.374 100.416 1.35 100.044C1.338 99.672 1.314 99.312 1.278 98.964H2.682L2.862 101.16L2.61 101.178C2.73 100.638 2.94 100.194 3.24 99.846C3.54 99.498 3.894 99.24 4.302 99.072C4.71 98.892 5.136 98.802 5.58 98.802C5.76 98.802 5.916 98.808 6.048 98.82C6.192 98.832 6.324 98.862 6.444 98.91L6.426 100.206C6.246 100.146 6.078 100.11 5.922 100.098C5.778 100.074 5.61 100.062 5.418 100.062C4.89 100.062 4.428 100.188 4.032 100.44C3.648 100.692 3.354 101.016 3.15 101.412C2.958 101.808 2.862 102.228 2.862 102.672V108H1.386ZM11.3112 108.162C10.5072 108.162 9.80517 107.976 9.20517 107.604C8.60517 107.22 8.13717 106.68 7.80117 105.984C7.47717 105.288 7.31517 104.454 7.31517 103.482C7.31517 102.498 7.47717 101.658 7.80117 100.962C8.13717 100.266 8.60517 99.732 9.20517 99.36C9.80517 98.988 10.5072 98.802 11.3112 98.802C12.1272 98.802 12.8292 99.012 13.4172 99.432C14.0172 99.84 14.4132 100.398 14.6052 101.106H14.3892L14.5872 98.964H15.9912C15.9552 99.312 15.9192 99.666 15.8832 100.026C15.8592 100.374 15.8472 100.716 15.8472 101.052V108H14.3892V105.876H14.5872C14.3952 106.584 13.9992 107.142 13.3992 107.55C12.7992 107.958 12.1032 108.162 11.3112 108.162ZM11.5992 106.974C12.4632 106.974 13.1472 106.68 13.6512 106.092C14.1552 105.492 14.4072 104.622 14.4072 103.482C14.4072 102.33 14.1552 101.46 13.6512 100.872C13.1472 100.272 12.4632 99.972 11.5992 99.972C10.7472 99.972 10.0632 100.272 9.54717 100.872C9.04317 101.46 8.79117 102.33 8.79117 103.482C8.79117 104.622 9.04317 105.492 9.54717 106.092C10.0632 106.68 10.7472 106.974 11.5992 106.974ZM22.4641 108.162C21.5761 108.162 20.8021 107.97 20.1421 107.586C19.4941 107.202 18.9901 106.656 18.6301 105.948C18.2821 105.24 18.1081 104.4 18.1081 103.428C18.1081 102.444 18.2881 101.61 18.6481 100.926C19.0081 100.23 19.5121 99.702 20.1601 99.342C20.8201 98.982 21.5881 98.802 22.4641 98.802C23.0401 98.802 23.5981 98.904 24.1381 99.108C24.6901 99.312 25.1461 99.6 25.5061 99.972L24.9841 101.016C24.6241 100.668 24.2281 100.41 23.7961 100.242C23.3761 100.074 22.9621 99.99 22.5541 99.99C21.6181 99.99 20.8921 100.284 20.3761 100.872C19.8601 101.46 19.6021 102.318 19.6021 103.446C19.6021 104.562 19.8601 105.426 20.3761 106.038C20.8921 106.65 21.6181 106.956 22.5541 106.956C22.9501 106.956 23.3581 106.878 23.7781 106.722C24.2101 106.566 24.6121 106.308 24.9841 105.948L25.5061 106.974C25.1341 107.358 24.6721 107.652 24.1201 107.856C23.5681 108.06 23.0161 108.162 22.4641 108.162ZM27.5783 108V98.964H29.0363V108H27.5783ZM27.3983 96.912V95.274H29.1983V96.912H27.3983ZM31.8673 108V101.052C31.8673 100.716 31.8493 100.374 31.8133 100.026C31.7893 99.666 31.7593 99.312 31.7233 98.964H33.1273L33.3073 100.944H33.0913C33.3553 100.248 33.7753 99.72 34.3513 99.36C34.9393 98.988 35.6173 98.802 36.3853 98.802C37.4533 98.802 38.2573 99.09 38.7973 99.666C39.3493 100.23 39.6253 101.124 39.6253 102.348V108H38.1673V102.438C38.1673 101.586 37.9933 100.968 37.6453 100.584C37.3093 100.188 36.7813 99.99 36.0613 99.99C35.2213 99.99 34.5553 100.248 34.0633 100.764C33.5713 101.28 33.3253 101.97 33.3253 102.834V108H31.8673ZM46.3922 112.014C45.6122 112.014 44.8922 111.918 44.2322 111.726C43.5722 111.534 42.9782 111.24 42.4502 110.844L42.8822 109.746C43.2542 110.01 43.6202 110.22 43.9802 110.376C44.3402 110.532 44.7122 110.646 45.0962 110.718C45.4802 110.802 45.8882 110.844 46.3202 110.844C47.2082 110.844 47.8802 110.61 48.3362 110.142C48.7922 109.674 49.0202 109.008 49.0202 108.144V105.498H49.2002C49.0082 106.206 48.6122 106.77 48.0122 107.19C47.4122 107.598 46.7102 107.802 45.9062 107.802C45.0782 107.802 44.3582 107.622 43.7462 107.262C43.1462 106.89 42.6782 106.368 42.3422 105.696C42.0182 105.012 41.8562 104.208 41.8562 103.284C41.8562 102.372 42.0182 101.58 42.3422 100.908C42.6782 100.236 43.1462 99.72 43.7462 99.36C44.3582 98.988 45.0782 98.802 45.9062 98.802C46.7222 98.802 47.4242 99.006 48.0122 99.414C48.6122 99.822 49.0082 100.386 49.2002 101.106L49.0202 100.926L49.1822 98.964H50.6042C50.5562 99.312 50.5202 99.666 50.4962 100.026C50.4722 100.374 50.4602 100.716 50.4602 101.052V107.946C50.4602 109.29 50.1122 110.304 49.4162 110.988C48.7322 111.672 47.7242 112.014 46.3922 112.014ZM46.1762 106.614C47.0522 106.614 47.7422 106.326 48.2462 105.75C48.7502 105.162 49.0022 104.34 49.0022 103.284C49.0022 102.228 48.7502 101.412 48.2462 100.836C47.7422 100.26 47.0522 99.972 46.1762 99.972C45.3122 99.972 44.6222 100.26 44.1062 100.836C43.5902 101.412 43.3322 102.228 43.3322 103.284C43.3322 104.34 43.5902 105.162 44.1062 105.75C44.6222 106.326 45.3122 106.614 46.1762 106.614ZM61.9313 112.014C61.1513 112.014 60.4313 111.918 59.7713 111.726C59.1113 111.534 58.5173 111.24 57.9893 110.844L58.4213 109.746C58.7933 110.01 59.1593 110.22 59.5193 110.376C59.8793 110.532 60.2513 110.646 60.6353 110.718C61.0193 110.802 61.4273 110.844 61.8593 110.844C62.7473 110.844 63.4193 110.61 63.8753 110.142C64.3313 109.674 64.5593 109.008 64.5593 108.144V105.498H64.7393C64.5473 106.206 64.1513 106.77 63.5513 107.19C62.9513 107.598 62.2493 107.802 61.4453 107.802C60.6173 107.802 59.8973 107.622 59.2853 107.262C58.6853 106.89 58.2173 106.368 57.8813 105.696C57.5573 105.012 57.3953 104.208 57.3953 103.284C57.3953 102.372 57.5573 101.58 57.8813 100.908C58.2173 100.236 58.6853 99.72 59.2853 99.36C59.8973 98.988 60.6173 98.802 61.4453 98.802C62.2613 98.802 62.9633 99.006 63.5513 99.414C64.1513 99.822 64.5473 100.386 64.7393 101.106L64.5593 100.926L64.7213 98.964H66.1433C66.0953 99.312 66.0593 99.666 66.0352 100.026C66.0113 100.374 65.9993 100.716 65.9993 101.052V107.946C65.9993 109.29 65.6513 110.304 64.9553 110.988C64.2713 111.672 63.2633 112.014 61.9313 112.014ZM61.7153 106.614C62.5913 106.614 63.2813 106.326 63.7853 105.75C64.2893 105.162 64.5413 104.34 64.5413 103.284C64.5413 102.228 64.2893 101.412 63.7853 100.836C63.2813 100.26 62.5913 99.972 61.7153 99.972C60.8513 99.972 60.1613 100.26 59.6453 100.836C59.1293 101.412 58.8713 102.228 58.8713 103.284C58.8713 104.34 59.1293 105.162 59.6453 105.75C60.1613 106.326 60.8513 106.614 61.7153 106.614ZM72.237 108.162C71.433 108.162 70.731 107.976 70.131 107.604C69.531 107.22 69.063 106.68 68.727 105.984C68.403 105.288 68.241 104.454 68.241 103.482C68.241 102.498 68.403 101.658 68.727 100.962C69.063 100.266 69.531 99.732 70.131 99.36C70.731 98.988 71.433 98.802 72.237 98.802C73.053 98.802 73.755 99.012 74.343 99.432C74.943 99.84 75.339 100.398 75.531 101.106H75.315L75.513 98.964H76.917C76.881 99.312 76.845 99.666 76.809 100.026C76.785 100.374 76.773 100.716 76.773 101.052V108H75.315V105.876H75.513C75.321 106.584 74.925 107.142 74.325 107.55C73.725 107.958 73.029 108.162 72.237 108.162ZM72.525 106.974C73.389 106.974 74.073 106.68 74.577 106.092C75.081 105.492 75.333 104.622 75.333 103.482C75.333 102.33 75.081 101.46 74.577 100.872C74.073 100.272 73.389 99.972 72.525 99.972C71.673 99.972 70.989 100.272 70.473 100.872C69.969 101.46 69.717 102.33 69.717 103.482C69.717 104.622 69.969 105.492 70.473 106.092C70.989 106.68 71.673 106.974 72.525 106.974ZM79.5919 108V101.052C79.5919 100.716 79.5739 100.374 79.5379 100.026C79.5139 99.666 79.4839 99.312 79.4479 98.964H80.8519L81.0319 100.944H80.8159C81.0559 100.26 81.4339 99.732 81.9499 99.36C82.4779 98.988 83.1139 98.802 83.8579 98.802C84.6139 98.802 85.2259 98.982 85.6939 99.342C86.1739 99.702 86.4979 100.26 86.6659 101.016H86.3959C86.6239 100.332 87.0259 99.792 87.6019 99.396C88.1779 99 88.8499 98.802 89.6179 98.802C90.6139 98.802 91.3639 99.09 91.8679 99.666C92.3719 100.23 92.6239 101.124 92.6239 102.348V108H91.1659V102.438C91.1659 101.586 91.0159 100.968 90.7159 100.584C90.4159 100.188 89.9359 99.99 89.2759 99.99C88.5199 99.99 87.9199 100.254 87.4759 100.782C87.0439 101.298 86.8279 101.994 86.8279 102.87V108H85.3699V102.438C85.3699 101.586 85.2199 100.968 84.9199 100.584C84.6199 100.188 84.1399 99.99 83.4799 99.99C82.7239 99.99 82.1299 100.254 81.6979 100.782C81.2659 101.298 81.0499 101.994 81.0499 102.87V108H79.5919ZM99.4087 108.162C97.9927 108.162 96.8767 107.754 96.0607 106.938C95.2447 106.11 94.8367 104.964 94.8367 103.5C94.8367 102.552 95.0167 101.73 95.3767 101.034C95.7367 100.326 96.2407 99.78 96.8887 99.396C97.5367 99 98.2807 98.802 99.1207 98.802C99.9487 98.802 100.645 98.976 101.209 99.324C101.773 99.672 102.205 100.17 102.505 100.818C102.805 101.454 102.955 102.21 102.955 103.086V103.626H95.9527V102.708H102.001L101.695 102.942C101.695 101.982 101.479 101.232 101.047 100.692C100.615 100.152 99.9727 99.882 99.1207 99.882C98.2207 99.882 97.5187 100.2 97.0147 100.836C96.5107 101.46 96.2587 102.306 96.2587 103.374V103.536C96.2587 104.664 96.5347 105.522 97.0867 106.11C97.6507 106.686 98.4367 106.974 99.4447 106.974C99.9847 106.974 100.489 106.896 100.957 106.74C101.437 106.572 101.893 106.302 102.325 105.93L102.829 106.956C102.433 107.34 101.929 107.64 101.317 107.856C100.717 108.06 100.081 108.162 99.4087 108.162ZM105.366 104.688L104.916 95.31H106.716L106.266 104.688H105.366ZM104.898 108V106.164H106.734V108H104.898Z" fill="white"/>
<defs>
<linearGradient id="paint0_linear_1709_6" x1="0" y1="33.9999" x2="241" y2="33.9999" gradientUnits="userSpaceOnUse">
<stop stop-color="white"/>
<stop offset="0.0001" stop-color="white"/>
<stop offset="1" stop-color="#787878"/>
</linearGradient>
</defs>
</svg>
