<svg width="11" height="10" viewBox="0 0 11 10" fill="none" xmlns="http://www.w3.org/2000/svg">
<path d="M9.75895 9.946C9.66419 9.94624 9.57039 9.92701 9.48338 9.88949C9.39636 9.85197 9.31799 9.79697 9.25312 9.72789L0.68194 1.17063C0.558983 1.03867 0.492044 0.864145 0.495226 0.68381C0.498407 0.503475 0.571462 0.331416 0.698997 0.20388C0.826533 0.0763444 0.998592 0.00329024 1.17893 0.000108448C1.35926 -0.00307335 1.53379 0.0638656 1.66575 0.186823L10.223 8.75801C10.3503 8.88734 10.4216 9.06151 10.4216 9.24295C10.4216 9.42439 10.3503 9.59856 10.223 9.72789C10.1014 9.85661 9.93563 9.93454 9.75895 9.946Z" fill="#7B7B7B"/>
<path d="M1.17398 9.94593C1.08166 9.94378 0.990676 9.9234 0.906258 9.88597C0.82184 9.84854 0.745653 9.79479 0.682076 9.72782C0.616974 9.66351 0.565285 9.58691 0.530006 9.50247C0.494728 9.41803 0.476563 9.32743 0.476562 9.23592C0.476563 9.1444 0.494728 9.0538 0.530006 8.96936C0.565285 8.88492 0.616974 8.80833 0.682076 8.74401L9.25326 0.186752C9.38792 0.0834568 9.55567 0.0329147 9.72498 0.0446302C9.89429 0.0563457 10.0535 0.129512 10.1726 0.250369C10.2918 0.371227 10.3627 0.53145 10.372 0.700909C10.3813 0.870367 10.3283 1.03739 10.2231 1.17056L1.66588 9.72782C1.60231 9.79479 1.52612 9.84854 1.4417 9.88597C1.35728 9.9234 1.2663 9.94378 1.17398 9.94593Z" fill="#7B7B7B"/>
</svg>
